<svg xmlns="http://www.w3.org/2000/svg" style="display:none">
  <symbol id="icon-book" viewBox="0 0 24 24"><path d="M5 4.5A2.5 2.5 0 0 1 7.5 2H20v18H7.5A2.5 2.5 0 0 0 5 22V4.5Z" fill="none" stroke="currentColor" stroke-width="1.7"/><path d="M5 6h13" stroke="currentColor" stroke-width="1.7"/><path d="M8 9h8M8 12h8M8 15h6" stroke="currentColor" stroke-width="1.4" stroke-linecap="round"/></symbol>
  <symbol id="icon-alert" viewBox="0 0 24 24"><path d="M12 3 2.8 19a1.2 1.2 0 0 0 1.04 1.8h16.32A1.2 1.2 0 0 0 21.2 19L12 3Z" fill="none" stroke="currentColor" stroke-width="1.7"/><path d="M12 9v5" stroke="currentColor" stroke-width="1.7" stroke-linecap="round"/><circle cx="12" cy="17.2" r="1" fill="currentColor"/></symbol>
  <symbol id="icon-folder" viewBox="0 0 24 24"><path d="M3 7.5A2.5 2.5 0 0 1 5.5 5H10l2 2h6.5A2.5 2.5 0 0 1 21 9.5v8A2.5 2.5 0 0 1 18.5 20h-13A2.5 2.5 0 0 1 3 17.5v-10Z" fill="none" stroke="currentColor" stroke-width="1.7"/><path d="M3 10h18" stroke="currentColor" stroke-width="1.7"/></symbol>
  <symbol id="icon-document" viewBox="0 0 24 24"><path d="M6 2.8h8l4 4V21H6V2.8Z" fill="none" stroke="currentColor" stroke-width="1.7"/><path d="M14 2.8V7h4" stroke="currentColor" stroke-width="1.7"/><path d="M9 11h6M9 14h6M9 17h4" stroke="currentColor" stroke-width="1.4" stroke-linecap="round"/></symbol>
  <symbol id="icon-notes" viewBox="0 0 24 24"><rect x="4" y="3" width="16" height="18" rx="2" fill="none" stroke="currentColor" stroke-width="1.7"/><path d="M8 7h8M8 11h8M8 15h5" stroke="currentColor" stroke-width="1.4" stroke-linecap="round"/></symbol>
  <symbol id="icon-phone" viewBox="0 0 24 24"><path d="M7.5 3.5 4.4 6.6a2 2 0 0 0-.4 2.2c1 2.4 2.6 4.8 4.9 7.1 2.3 2.3 4.7 3.9 7.1 4.9a2 2 0 0 0 2.2-.4l3.1-3.1a1.6 1.6 0 0 0-.5-2.6l-3.3-1.4a1.6 1.6 0 0 0-1.8.5l-1.1 1.3a13.8 13.8 0 0 1-5.7-5.7l1.3-1.1a1.6 1.6 0 0 0 .5-1.8L10.1 4a1.6 1.6 0 0 0-2.6-.5Z" fill="none" stroke="currentColor" stroke-width="1.6"/></symbol>
  <symbol id="icon-lock" viewBox="0 0 24 24"><rect x="5" y="10" width="14" height="11" rx="2" fill="none" stroke="currentColor" stroke-width="1.7"/><path d="M8 10V7.8a4 4 0 0 1 8 0V10" fill="none" stroke="currentColor" stroke-width="1.7"/></symbol>
  <symbol id="icon-print" viewBox="0 0 24 24"><path d="M7 8V3h10v5" fill="none" stroke="currentColor" stroke-width="1.7"/><rect x="5" y="14" width="14" height="7" fill="none" stroke="currentColor" stroke-width="1.7"/><rect x="3" y="8" width="18" height="7" rx="2" fill="none" stroke="currentColor" stroke-width="1.7"/></symbol>
  <symbol id="icon-help" viewBox="0 0 24 24"><circle cx="12" cy="12" r="9" fill="none" stroke="currentColor" stroke-width="1.7"/><path d="M9.7 9.5a2.4 2.4 0 1 1 3.7 2c-.9.6-1.4 1.1-1.4 2" fill="none" stroke="currentColor" stroke-width="1.7" stroke-linecap="round"/><circle cx="12" cy="16.8" r="1" fill="currentColor"/></symbol>
</svg>
